<svg xmlns="http://www.w3.org/2000/svg" version="1.1" xmlns:xlink="http://www.w3.org/1999/xlink" width="1000" height="1000"><style>
    #light-icon {
      display: inline;
    }
    #dark-icon {
      display: none;
    }

    @media (prefers-color-scheme: dark) {
      #light-icon {
        display: none;
      }
      #dark-icon {
        display: inline;
      }
    }
  </style><g id="light-icon"><svg xmlns="http://www.w3.org/2000/svg" version="1.1" xmlns:xlink="http://www.w3.org/1999/xlink" width="1000" height="1000"><g clip-path="url(#SvgjsClipPath1026)"><rect width="1000" height="1000" fill="#ffffff"></rect><g transform="matrix(11.407386282617995,0,0,11.407386282617995,100,100)"><svg xmlns="http://www.w3.org/2000/svg" version="1.1" xmlns:xlink="http://www.w3.org/1999/xlink" width="70.13" height="70.13"><svg id="Layer_2" xmlns="http://www.w3.org/2000/svg" viewBox="0 0 70.13 70.13"><defs><style>.cls-1{fill:#035157;}</style><clipPath id="SvgjsClipPath1026"><rect width="1000" height="1000" x="0" y="0" rx="350" ry="350"></rect></clipPath></defs><g id="Design"><path class="cls-1" d="m35.07,0C15.73,0,0,15.73,0,35.07c0,5.57,1.56,11.22,4.64,16.81.7,1.26,2.1,1.89,3.43,1.67,0,0,.01,0,.02,0,.7-.09,1.79-.44,2.62-1.71l15.9-22.59,8.43,12.1-13.06,20.3c-.25.39-.4.81-.48,1.24-.35,1.32.15,2.78,1.35,3.59,3.34,2.26,8.02,3.66,12.22,3.66,19.33,0,35.06-15.73,35.06-35.06S54.4,0,35.07,0Zm0,63.51c-1.86,0-3.9-.4-5.71-1.1l15.02-23.34,10.9,15.99c-5.15,5.22-12.31,8.45-20.2,8.45Zm24.47-13.95l-12.51-18.34c-.62-.9-1.64-1.44-2.73-1.44h-.04c-1.11.01-2.13.58-2.73,1.51l-2.6,4.04-9.57-13.75c-.62-.88-1.63-1.41-2.71-1.42h-.01c-1.07,0-2.08.53-2.71,1.4l-15.7,22.29c-1.07-2.96-1.62-5.9-1.62-8.79,0-15.69,12.76-28.45,28.45-28.45s28.45,12.76,28.45,28.45c0,5.29-1.46,10.25-3.98,14.49Z"></path></g></svg></svg></g></g></svg></g><g id="dark-icon"><svg xmlns="http://www.w3.org/2000/svg" version="1.1" xmlns:xlink="http://www.w3.org/1999/xlink" width="1000" height="1000"><g clip-path="url(#SvgjsClipPath1027)"><rect width="1000" height="1000" fill="#035157"></rect><g transform="matrix(11.407386282617995,0,0,11.407386282617995,100,100)"><svg xmlns="http://www.w3.org/2000/svg" version="1.1" xmlns:xlink="http://www.w3.org/1999/xlink" width="70.13" height="70.13"><svg id="Layer_2" xmlns="http://www.w3.org/2000/svg" viewBox="0 0 70.13 70.13"><defs><style>.cls-1{fill:#fff;}</style><clipPath id="SvgjsClipPath1027"><rect width="1000" height="1000" x="0" y="0" rx="350" ry="350"></rect></clipPath></defs><g id="Design"><path class="cls-1" d="m35.07,0C15.73,0,0,15.73,0,35.07c0,5.57,1.56,11.22,4.64,16.81.7,1.26,2.1,1.89,3.43,1.67,0,0,.01,0,.02,0,.7-.09,1.79-.44,2.62-1.71l15.9-22.59,8.43,12.1-13.06,20.3c-.25.39-.4.81-.48,1.24-.35,1.32.15,2.78,1.35,3.59,3.34,2.26,8.02,3.66,12.22,3.66,19.33,0,35.06-15.73,35.06-35.06S54.4,0,35.07,0Zm0,63.51c-1.86,0-3.9-.4-5.71-1.1l15.02-23.34,10.9,15.99c-5.15,5.22-12.31,8.45-20.2,8.45Zm24.47-13.95l-12.51-18.34c-.62-.9-1.64-1.44-2.73-1.44h-.04c-1.11.01-2.13.58-2.73,1.51l-2.6,4.04-9.57-13.75c-.62-.88-1.63-1.41-2.71-1.42h-.01c-1.07,0-2.08.53-2.71,1.4l-15.7,22.29c-1.07-2.96-1.62-5.9-1.62-8.79,0-15.69,12.76-28.45,28.45-28.45s28.45,12.76,28.45,28.45c0,5.29-1.46,10.25-3.98,14.49Z"></path></g></svg></svg></g></g></svg></g></svg>