<svg xmlns="http://www.w3.org/2000/svg" viewBox="0 0 512 512">
  <path fill-rule="evenodd" d="
    M256,32
    C132.3,32 32,132.3 32,256
    C32,379.7 132.3,480 256,480
    C379.7,480 480,379.7 480,256
    C480,132.3 379.7,32 256,32
    Z
    M256,80
    C159.4,80 80,159.4 80,256
    C80,352.6 159.4,432 256,432
    C352.6,432 432,352.6 432,256
    C432,159.4 352.6,80 256,80
    Z
    " />
  <!-- Mountains (approximation of TORBU mark) -->
  <path d="M140 346 L230 206 L300 316 L260 346 Z" />
  <path d="M238 346 L330 178 L392 286 L348 346 Z" />
  <!-- Foreground wedge -->
  <path d="M300 346 L352 256 L404 346 Z" />
</svg>
